<svg width="261" height="70" viewBox="0 0 261 70" fill="none" xmlns="http://www.w3.org/2000/svg">
<path fill-rule="evenodd" clip-rule="evenodd" d="M0.0669699 16.0256H11.7618H14.8955H23.8925C24.4396 16.0256 24.9712 16.0401 25.4873 16.069H39.0642H41.0642V18.069V51.9744V53.9744H39.0642H2H0V51.9744V18.069V16.069H0.0669699V16.0256ZM32.5657 51.9744H39.0642V44.9467C38.4755 46.2447 37.7383 47.425 36.8526 48.4878C35.6828 49.8914 34.2538 51.0536 32.5657 51.9744ZM39.0642 24.6454V18.069H33.0059C34.8144 19.0709 36.2868 20.3378 37.4229 21.8699C38.065 22.7358 38.6121 23.6609 39.0642 24.6454ZM22.7748 18.069H24.4792C25.1196 18.1007 25.8053 18.1634 26.5364 18.2571C27.6769 18.3633 28.8001 18.6113 29.906 19.0009C31.0465 19.3905 32.1351 19.9572 33.1719 20.701C34.2433 21.4094 35.1764 22.4012 35.9713 23.6763C36.8008 24.916 37.4574 26.4567 37.9413 28.2985C38.4597 30.1404 38.7189 32.3541 38.7189 34.9397C38.7189 38.2338 38.2696 40.9788 37.371 43.1748C36.507 45.3354 35.3665 47.071 33.9496 48.3815C32.5326 49.6566 30.9428 50.5775 29.1802 51.1442C27.4522 51.6755 25.7242 51.9412 23.9962 51.9412H23.2472C23.5929 51.7274 23.9199 51.4972 24.2281 51.2505C25.3687 50.3296 26.2502 49.2139 26.8723 47.9033C27.4945 46.5928 27.8056 45.0698 27.8056 43.3342C27.8056 41.4215 27.4081 39.8631 26.6131 38.6588C25.8527 37.4191 24.9713 36.4628 23.9689 35.7898C23.001 35.0814 22.0678 34.6032 21.1691 34.3553C20.2704 34.1074 19.7 34.0011 19.4581 34.0365L19.3544 33.9303C20.4259 33.7886 21.3937 33.4875 22.2579 33.0271C23.1566 32.5312 23.917 31.9291 24.5392 31.2207C25.1959 30.5123 25.6971 29.6976 26.0428 28.7767C26.3884 27.8558 26.5612 26.8818 26.5612 25.8546C26.5612 24.6503 26.3539 23.4638 25.9391 22.2949C25.5589 21.0906 24.9194 20.0281 24.0207 19.1071C23.6543 18.7316 23.239 18.3856 22.7748 18.069ZM14.0428 18.069H15.8384C16.7376 18.1162 17.5985 18.2321 18.4211 18.4165C19.5618 18.6644 20.5642 19.0894 21.4283 19.6916C22.2924 20.2583 22.9837 21.0198 23.5022 21.9761C24.0207 22.897 24.2799 24.0482 24.2799 25.4296C24.2799 27.7673 23.5022 29.6622 21.9468 31.1144C20.3913 32.5312 18.0409 33.2396 14.8955 33.2396H14.0428V18.069ZM2.34828 18.069H11.7618V33.2396H2.34828V18.069ZM2.34828 35.2585H11.7618V51.9412H2.34828V35.2585ZM14.0428 35.2585V51.9412H14.8955C18.2137 51.9412 20.8061 51.2328 22.6727 49.816C24.5737 48.3638 25.5243 46.2032 25.5243 43.3342C25.5243 41.7049 25.1959 40.3767 24.5392 39.3495C23.8824 38.2869 23.0356 37.4545 21.9986 36.8524C20.9962 36.2503 19.8556 35.8429 18.5767 35.6304C17.3323 35.3825 16.1053 35.2585 14.8955 35.2585H14.0428Z" fill="#909090"/>
<path d="M56.3658 23.3982H59.7166C60.2094 23.3982 60.62 23.2613 60.9485 22.9875C61.277 22.7028 61.4413 22.2977 61.4413 21.7721C61.4413 21.1807 61.2935 20.7646 60.9978 20.5237C60.7021 20.2828 60.2751 20.1623 59.7166 20.1623H56.3658V23.3982ZM54.3126 18.4869H60.0123C61.0635 18.4869 61.9067 18.7278 62.5418 19.2096C63.1769 19.6915 63.4945 20.4197 63.4945 21.3943C63.4945 21.9856 63.3467 22.4948 63.051 22.9218C62.7663 23.338 62.3557 23.661 61.8191 23.891V23.9238C62.5418 24.0771 63.0893 24.4221 63.4617 24.9586C63.834 25.4843 64.0201 26.1468 64.0201 26.9461C64.0201 27.4061 63.938 27.8386 63.7737 28.2438C63.6095 28.638 63.3522 28.9829 63.0017 29.2786C62.6513 29.5633 62.2024 29.7933 61.6548 29.9685C61.1073 30.1327 60.4558 30.2148 59.7002 30.2148H54.3126V18.4869ZM56.3658 28.5394H59.9958C60.62 28.5394 61.1018 28.3806 61.4413 28.0631C61.7917 27.7346 61.9669 27.2746 61.9669 26.6833C61.9669 26.103 61.7917 25.6595 61.4413 25.3528C61.1018 25.0353 60.62 24.8765 59.9958 24.8765H56.3658V28.5394ZM68.3417 18.4869H76.7845V20.2609H70.395V23.3325H76.3082V25.0079H70.395V28.4409H76.8995V30.2148H68.3417V18.4869ZM84.2891 18.4869H86.4738L90.9908 30.2148H88.7898L87.6893 27.1104H83.0079L81.9074 30.2148H79.7885L84.2891 18.4869ZM83.5664 25.55H87.1472L85.3897 20.5073H85.3404L83.5664 25.55ZM94.4401 18.4869H96.4933V25.32C96.4933 25.7142 96.5097 26.1139 96.5426 26.5191C96.5864 26.9242 96.6959 27.2911 96.8711 27.6196C97.0572 27.9372 97.331 28.2 97.6924 28.408C98.0647 28.6161 98.5848 28.7201 99.2528 28.7201C99.9208 28.7201 100.435 28.6161 100.797 28.408C101.169 28.2 101.443 27.9372 101.618 27.6196C101.804 27.2911 101.914 26.9242 101.947 26.5191C101.99 26.1139 102.012 25.7142 102.012 25.32V18.4869H104.066V25.9934C104.066 26.749 103.951 27.4061 103.721 27.9645C103.491 28.523 103.162 28.9939 102.735 29.3771C102.319 29.7494 101.815 30.0287 101.224 30.2148C100.633 30.401 99.9755 30.4941 99.2528 30.4941C98.5301 30.4941 97.873 30.401 97.2817 30.2148C96.6904 30.0287 96.1812 29.7494 95.7541 29.3771C95.338 28.9939 95.015 28.523 94.785 27.9645C94.5551 27.4061 94.4401 26.749 94.4401 25.9934V18.4869ZM107.772 18.4869H117.266V20.2609H113.538V30.2148H111.485V20.2609H107.772V18.4869ZM124.145 25.6157L119.743 18.4869H122.125L125.229 23.7431L128.284 18.4869H130.584L126.198 25.6157V30.2148H124.145V25.6157ZM141.24 18.4869H146.102C147 18.4869 147.778 18.6402 148.435 18.9468C149.092 19.2534 149.628 19.675 150.044 20.2116C150.461 20.7372 150.767 21.3559 150.964 22.0677C151.172 22.7795 151.276 23.5405 151.276 24.3509C151.276 25.1612 151.172 25.9223 150.964 26.634C150.767 27.3458 150.461 27.97 150.044 28.5066C149.628 29.0322 149.092 29.4483 148.435 29.7549C147.778 30.0615 147 30.2148 146.102 30.2148H141.24V18.4869ZM143.293 28.5394H145.314C146.113 28.5394 146.765 28.4354 147.268 28.2273C147.783 28.0083 148.183 27.7127 148.468 27.3404C148.763 26.9571 148.96 26.5136 149.059 26.0099C149.168 25.4952 149.223 24.9422 149.223 24.3509C149.223 23.7596 149.168 23.212 149.059 22.7083C148.96 22.1936 148.763 21.7501 148.468 21.3778C148.183 20.9946 147.783 20.6989 147.268 20.4908C146.765 20.2718 146.113 20.1623 145.314 20.1623H143.293V28.5394ZM155.558 18.4869H164.001V20.2609H157.611V23.3325H163.525V25.0079H157.611V28.4409H164.116V30.2148H155.558V18.4869ZM168.286 18.4869H170.454L175.809 27.1268H175.842V18.4869H177.797V30.2148H175.628L170.29 21.5914H170.241V30.2148H168.286V18.4869ZM181.569 18.4869H191.063V20.2609H187.335V30.2148H185.281V20.2609H181.569V18.4869ZM194.887 18.4869H196.94V30.2148H194.887V18.4869ZM203.269 26.3055C203.269 26.7545 203.346 27.1378 203.499 27.4553C203.652 27.7729 203.866 28.0357 204.14 28.2438C204.413 28.4409 204.726 28.5887 205.076 28.6873C205.437 28.7749 205.826 28.8187 206.242 28.8187C206.691 28.8187 207.074 28.7694 207.392 28.6708C207.71 28.5613 207.967 28.4244 208.164 28.2602C208.361 28.0959 208.503 27.9098 208.591 27.7017C208.679 27.4827 208.722 27.2637 208.722 27.0447C208.722 26.5957 208.618 26.2672 208.41 26.0591C208.213 25.8401 207.994 25.6868 207.753 25.5992C207.337 25.4459 206.85 25.3036 206.291 25.1722C205.744 25.0298 205.065 24.8491 204.255 24.6301C203.751 24.4987 203.329 24.329 202.99 24.1209C202.661 23.9019 202.399 23.661 202.201 23.3982C202.004 23.1354 201.862 22.8561 201.774 22.5605C201.698 22.2648 201.659 21.9637 201.659 21.6571C201.659 21.0657 201.78 20.5566 202.021 20.1295C202.273 19.6915 202.601 19.3301 203.006 19.0454C203.411 18.7607 203.871 18.5526 204.386 18.4212C204.901 18.2789 205.421 18.2077 205.946 18.2077C206.56 18.2077 207.135 18.2898 207.671 18.4541C208.219 18.6074 208.695 18.8428 209.1 19.1604C209.516 19.4779 209.845 19.8721 210.086 20.343C210.327 20.8029 210.447 21.3395 210.447 21.9527H208.394C208.339 21.1972 208.082 20.6661 207.622 20.3594C207.162 20.0419 206.576 19.8831 205.864 19.8831C205.623 19.8831 205.377 19.9105 205.125 19.9652C204.873 20.009 204.643 20.0912 204.435 20.2116C204.227 20.3211 204.052 20.4744 203.91 20.6715C203.778 20.8686 203.713 21.115 203.713 21.4107C203.713 21.8268 203.839 22.1553 204.09 22.3962C204.353 22.6262 204.693 22.8014 205.109 22.9218C205.153 22.9328 205.322 22.9821 205.618 23.0697C205.925 23.1463 206.264 23.2339 206.636 23.3325C207.009 23.431 207.37 23.5296 207.72 23.6282C208.082 23.7158 208.339 23.7815 208.492 23.8253C208.876 23.9457 209.21 24.11 209.494 24.318C209.779 24.5261 210.015 24.767 210.201 25.0408C210.398 25.3036 210.54 25.5883 210.628 25.8949C210.726 26.2015 210.776 26.5081 210.776 26.8147C210.776 27.4718 210.639 28.0357 210.365 28.5066C210.102 28.9665 209.752 29.3443 209.314 29.6399C208.876 29.9356 208.377 30.1491 207.819 30.2805C207.261 30.4229 206.691 30.4941 206.111 30.4941C205.443 30.4941 204.813 30.412 204.222 30.2477C203.63 30.0834 203.116 29.8316 202.678 29.4921C202.24 29.1527 201.889 28.7201 201.627 28.1945C201.364 27.6579 201.227 27.0283 201.216 26.3055H203.269ZM213.92 18.4869H223.414V20.2609H219.686V30.2148H217.632V20.2609H213.92V18.4869ZM227.238 18.4869H232.839C234.131 18.4869 235.1 18.7662 235.746 19.3246C236.392 19.8831 236.715 20.6606 236.715 21.6571C236.715 22.2155 236.633 22.6809 236.469 23.0533C236.305 23.4146 236.113 23.7103 235.894 23.9402C235.675 24.1592 235.456 24.318 235.237 24.4166C235.029 24.5151 234.876 24.5808 234.777 24.6137V24.6465C234.952 24.6684 235.138 24.7232 235.335 24.8108C235.544 24.8984 235.735 25.0408 235.91 25.2379C236.086 25.424 236.228 25.6704 236.337 25.977C236.458 26.2836 236.518 26.6669 236.518 27.1268C236.518 27.8167 236.567 28.4463 236.666 29.0158C236.775 29.5742 236.94 29.9739 237.159 30.2148H234.958C234.804 29.963 234.711 29.6837 234.678 29.3771C234.657 29.0705 234.646 28.7749 234.646 28.4901C234.646 27.9536 234.613 27.4937 234.547 27.1104C234.481 26.7162 234.361 26.3931 234.186 26.1413C234.01 25.8785 233.77 25.6868 233.463 25.5664C233.167 25.4459 232.784 25.3857 232.313 25.3857H229.291V30.2148H227.238V18.4869ZM229.291 23.8253H232.658C233.315 23.8253 233.813 23.672 234.153 23.3653C234.492 23.0478 234.662 22.5769 234.662 21.9527C234.662 21.5804 234.607 21.2793 234.498 21.0493C234.388 20.8084 234.235 20.6223 234.038 20.4908C233.852 20.3594 233.633 20.2718 233.381 20.228C233.14 20.1842 232.888 20.1623 232.625 20.1623H229.291V23.8253ZM243.712 25.6157L239.31 18.4869H241.692L244.797 23.7431L247.852 18.4869H250.151L245.766 25.6157V30.2148H243.712V25.6157Z" fill="#909090"/>
<rect x="53.0642" y="36.5" width="197" height="2" fill="#909090"/>
<path d="M53.984 43.5756H55.4788L58.0658 50.4744L60.6644 43.5756H62.1591V51.7852H61.1243V44.9554H61.1013L58.5372 51.7852H57.6059L55.0419 44.9554H55.0189V51.7852H53.984V43.5756ZM67.1158 48.3933H69.8983L68.5301 44.5644H68.5071L67.1158 48.3933ZM67.9322 43.5756H69.1394L72.3474 51.7852H71.1401L70.2432 49.3131H66.7709L65.851 51.7852H64.7357L67.9322 43.5756ZM74.882 43.5756H75.9743V50.8653H80.3205V51.7852H74.882V43.5756ZM82.9957 43.5756H84.088V50.8653H88.4342V51.7852H82.9957V43.5756ZM91.7418 47.6804C91.7418 48.0943 91.7954 48.5044 91.9027 48.9107C92.01 49.3093 92.1787 49.6695 92.4086 49.9915C92.6386 50.3134 92.9337 50.574 93.294 50.7733C93.6542 50.965 94.0835 51.0608 94.5818 51.0608C95.08 51.0608 95.5093 50.965 95.8695 50.7733C96.2298 50.574 96.5249 50.3134 96.7549 49.9915C96.9848 49.6695 97.1535 49.3093 97.2608 48.9107C97.3681 48.5044 97.4217 48.0943 97.4217 47.6804C97.4217 47.2665 97.3681 46.8602 97.2608 46.4616C97.1535 46.0553 96.9848 45.6912 96.7549 45.3693C96.5249 45.0473 96.2298 44.7906 95.8695 44.5989C95.5093 44.3996 95.08 44.3 94.5818 44.3C94.0835 44.3 93.6542 44.3996 93.294 44.5989C92.9337 44.7906 92.6386 45.0473 92.4086 45.3693C92.1787 45.6912 92.01 46.0553 91.9027 46.4616C91.7954 46.8602 91.7418 47.2665 91.7418 47.6804ZM90.6494 47.6804C90.6494 47.1208 90.7299 46.5842 90.8909 46.0707C91.0595 45.5494 91.3087 45.0895 91.6383 44.6909C91.9679 44.2923 92.378 43.9742 92.8686 43.7366C93.3591 43.499 93.9302 43.3801 94.5818 43.3801C95.2333 43.3801 95.8044 43.499 96.2949 43.7366C96.7855 43.9742 97.1956 44.2923 97.5252 44.6909C97.8548 45.0895 98.1001 45.5494 98.2611 46.0707C98.4297 46.5842 98.5141 47.1208 98.5141 47.6804C98.5141 48.2399 98.4297 48.7804 98.2611 49.3016C98.1001 49.8152 97.8548 50.2713 97.5252 50.6699C97.1956 51.0684 96.7855 51.3866 96.2949 51.6242C95.8044 51.8541 95.2333 51.9691 94.5818 51.9691C93.9302 51.9691 93.3591 51.8541 92.8686 51.6242C92.378 51.3866 91.9679 51.0684 91.6383 50.6699C91.3087 50.2713 91.0595 49.8152 90.8909 49.3016C90.7299 48.7804 90.6494 48.2399 90.6494 47.6804ZM101.57 43.5756H105.433C106.215 43.5756 106.824 43.7672 107.261 44.1505C107.706 44.5338 107.928 45.0588 107.928 45.7257C107.928 46.224 107.813 46.6609 107.583 47.0365C107.361 47.4121 107.001 47.6689 106.502 47.8069V47.8299C106.74 47.8758 106.932 47.9525 107.077 48.0598C107.231 48.1671 107.349 48.2974 107.434 48.4507C107.526 48.5964 107.591 48.7612 107.629 48.9452C107.675 49.1291 107.71 49.3208 107.733 49.5201C107.748 49.7194 107.76 49.9225 107.767 50.1294C107.775 50.3364 107.794 50.5395 107.825 50.7388C107.855 50.9381 107.898 51.1298 107.951 51.3137C108.013 51.49 108.101 51.6472 108.216 51.7852H106.997C106.92 51.7008 106.867 51.5859 106.836 51.4402C106.813 51.2946 106.798 51.1336 106.79 50.9573C106.782 50.7733 106.775 50.5779 106.767 50.3709C106.759 50.1639 106.736 49.9608 106.698 49.7615C106.667 49.5622 106.629 49.3744 106.583 49.1981C106.537 49.0141 106.464 48.857 106.364 48.7267C106.265 48.5887 106.135 48.4814 105.974 48.4048C105.813 48.3204 105.598 48.2783 105.33 48.2783H102.662V51.7852H101.57V43.5756ZM104.939 47.3584C105.192 47.3584 105.433 47.3393 105.663 47.3009C105.893 47.2626 106.092 47.1898 106.261 47.0825C106.437 46.9675 106.575 46.818 106.675 46.6341C106.782 46.4424 106.836 46.1971 106.836 45.8982C106.836 45.4843 106.721 45.147 106.491 44.8864C106.261 44.6258 105.889 44.4954 105.376 44.4954H102.662V47.3584H104.939ZM116.938 46.0477C116.815 45.4651 116.543 45.0282 116.121 44.7369C115.707 44.4456 115.213 44.3 114.638 44.3C114.147 44.3 113.726 44.392 113.373 44.5759C113.028 44.7599 112.741 45.009 112.511 45.3233C112.289 45.6299 112.124 45.9825 112.017 46.3811C111.909 46.7797 111.856 47.1936 111.856 47.6229C111.856 48.0905 111.909 48.5351 112.017 48.9567C112.124 49.3706 112.289 49.7347 112.511 50.049C112.741 50.3556 113.032 50.6009 113.385 50.7848C113.737 50.9688 114.159 51.0608 114.65 51.0608C115.01 51.0608 115.328 51.0033 115.604 50.8883C115.888 50.7657 116.129 50.6009 116.328 50.3939C116.535 50.1793 116.696 49.9263 116.811 49.635C116.926 49.3438 116.995 49.0295 117.018 48.6922H118.11C118.003 49.727 117.647 50.5319 117.041 51.1068C116.436 51.6817 115.608 51.9691 114.558 51.9691C113.921 51.9691 113.366 51.8618 112.89 51.6472C112.415 51.4249 112.02 51.1221 111.706 50.7388C111.392 50.3556 111.154 49.9033 110.993 49.3821C110.84 48.8608 110.763 48.3013 110.763 47.7034C110.763 47.1055 110.848 46.5459 111.016 46.0247C111.185 45.4958 111.43 45.0358 111.752 44.6449C112.082 44.254 112.488 43.9474 112.971 43.7251C113.461 43.4951 114.021 43.3801 114.65 43.3801C115.079 43.3801 115.485 43.4376 115.868 43.5526C116.252 43.6676 116.593 43.8362 116.892 44.0585C117.191 44.2808 117.44 44.5606 117.639 44.8979C117.838 45.2275 117.969 45.6107 118.03 46.0477H116.938ZM122.602 48.3933H125.385L124.017 44.5644H123.994L122.602 48.3933ZM123.419 43.5756H124.626L127.834 51.7852H126.627L125.73 49.3131H122.258L121.338 51.7852H120.222L123.419 43.5756Z" fill="#909090"/>
</svg>
